<?xml version="1.0" standalone="no"?>
<!DOCTYPE svg PUBLIC "-//W3C//DTD SVG 20010904//EN"
 "http://www.w3.org/TR/2001/REC-SVG-20010904/DTD/svg10.dtd">
<svg version="1.0" xmlns="http://www.w3.org/2000/svg"
 width="1584.000000pt" height="1586.000000pt" viewBox="0 0 1584.000000 1586.000000"
 preserveAspectRatio="xMidYMid meet">
<metadata>
Created by potrace 1.16, written by Peter Selinger 2001-2019
</metadata>
<g transform="translate(0.000000,1586.000000) scale(0.100000,-0.100000)"
fill="#000000" stroke="none">
<path d="M7700 13970 c0 -6 -33 -10 -79 -10 -54 0 -81 -4 -84 -12 -4 -10 -8
-9 -17 2 -9 11 -13 12 -17 3 -2 -8 -22 -13 -44 -13 -21 0 -39 -4 -39 -10 0 -6
-27 -10 -60 -10 -33 0 -60 -4 -60 -10 0 -5 -22 -10 -50 -10 -27 0 -50 -4 -50
-10 0 -5 -13 -10 -30 -10 -16 0 -30 -4 -30 -10 0 -5 -13 -10 -30 -10 -16 0
-30 -4 -30 -10 0 -5 -13 -10 -30 -10 -16 0 -30 -4 -30 -10 0 -5 -18 -10 -40
-10 -22 0 -40 -4 -40 -10 0 -5 -9 -10 -20 -10 -11 0 -20 -4 -20 -10 0 -5 -13
-10 -30 -10 -16 0 -30 -4 -30 -10 0 -5 -13 -10 -30 -10 -16 0 -30 -4 -30 -10
0 -5 -9 -10 -20 -10 -11 0 -20 -4 -20 -10 0 -5 -9 -10 -20 -10 -11 0 -20 -4
-20 -10 0 -5 -9 -10 -20 -10 -11 0 -20 -4 -20 -10 0 -5 -9 -10 -20 -10 -11 0
-20 -4 -20 -10 0 -5 -13 -10 -28 -10 -16 0 -34 -8 -42 -20 -8 -11 -22 -20 -32
-20 -10 0 -18 -4 -18 -10 0 -5 -9 -10 -20 -10 -11 0 -20 -4 -20 -10 0 -5 -9
-10 -20 -10 -11 0 -20 -4 -20 -10 0 -5 -7 -10 -16 -10 -9 0 -29 -13 -44 -30
-15 -16 -35 -30 -44 -30 -9 0 -16 -4 -16 -10 0 -5 -8 -10 -18 -10 -10 0 -24
-9 -32 -20 -8 -11 -21 -20 -30 -20 -9 0 -22 -9 -30 -20 -8 -11 -20 -20 -28
-20 -7 0 -35 -22 -62 -50 -27 -27 -55 -50 -62 -50 -8 0 -20 -9 -28 -20 -8 -11
-20 -20 -27 -20 -16 0 -343 -325 -343 -341 0 -6 -13 -24 -30 -39 -16 -15 -30
-33 -30 -40 0 -6 -18 -29 -40 -50 -22 -21 -40 -45 -40 -52 0 -7 -9 -20 -20
-28 -11 -8 -20 -21 -20 -28 0 -8 -13 -27 -30 -42 -16 -15 -30 -35 -30 -44 0
-9 -4 -16 -10 -16 -5 0 -10 -8 -10 -18 0 -10 -9 -24 -20 -32 -11 -8 -20 -26
-20 -40 0 -14 -9 -32 -20 -40 -11 -8 -20 -22 -20 -32 0 -10 -4 -18 -10 -18 -5
0 -10 -8 -10 -18 0 -10 -9 -24 -20 -32 -11 -8 -20 -22 -20 -32 0 -10 -4 -18
-10 -18 -5 0 -10 -9 -10 -20 0 -11 -4 -20 -10 -20 -5 0 -10 -13 -10 -30 0 -16
-4 -30 -10 -30 -5 0 -10 -9 -10 -20 0 -11 -4 -20 -10 -20 -5 0 -10 -9 -10 -20
0 -11 -4 -20 -10 -20 -5 0 -10 -13 -10 -30 0 -16 -4 -30 -10 -30 -5 0 -10 -9
-10 -20 0 -11 -4 -20 -10 -20 -5 0 -10 -13 -10 -30 0 -16 -4 -30 -10 -30 -5 0
-10 -13 -10 -30 0 -16 -4 -30 -10 -30 -5 0 -10 -18 -10 -40 0 -22 -4 -40 -10
-40 -5 0 -10 -9 -10 -20 0 -11 -4 -20 -10 -20 -5 0 -10 -18 -10 -40 0 -22 -4
-40 -10 -40 -5 0 -10 -18 -10 -40 0 -22 -4 -40 -10 -40 -6 0 -10 -27 -10 -60
0 -33 -4 -60 -10 -60 -5 0 -10 -18 -10 -40 0 -22 -4 -40 -10 -40 -6 0 -10 -47
-10 -120 0 -73 -4 -120 -10 -120 -16 0 -14 -3217 3 -3223 9 -4 8 -8 -3 -17
-11 -9 -12 -13 -2 -17 8 -3 12 -32 12 -93 0 -61 4 -90 13 -93 9 -4 8 -8 -3
-17 -11 -9 -12 -13 -2 -17 6 -2 12 -18 12 -34 0 -16 5 -29 10 -29 6 0 10 -22
10 -50 0 -27 5 -50 10 -50 6 0 10 -22 10 -50 0 -27 5 -50 10 -50 6 0 10 -22
10 -50 0 -27 5 -50 10 -50 6 0 10 -9 10 -20 0 -11 5 -20 10 -20 6 0 10 -13 10
-30 0 -16 5 -30 10 -30 6 0 10 -18 10 -40 0 -22 5 -40 10 -40 6 0 10 -13 10
-28 0 -16 8 -34 20 -42 12 -8 20 -26 20 -42 0 -15 5 -28 10 -28 6 0 10 -13 10
-28 0 -16 8 -34 20 -42 12 -8 20 -26 20 -42 0 -15 5 -28 10 -28 6 0 10 -9 10
-20 0 -11 5 -20 10 -20 6 0 10 -9 10 -20 0 -11 5 -20 10 -20 6 0 10 -9 10 -20
0 -11 5 -20 10 -20 6 0 10 -9 10 -20 0 -11 5 -20 10 -20 6 0 10 -9 10 -20 0
-11 5 -20 10 -20 6 0 10 -7 10 -16 0 -9 14 -29 30 -44 17 -15 30 -38 30 -50 0
-12 14 -35 30 -50 17 -15 30 -35 30 -44 0 -9 5 -16 10 -16 6 0 10 -7 10 -16 0
-8 18 -33 40 -54 22 -21 40 -44 40 -50 0 -6 18 -29 40 -50 22 -21 40 -43 40
-49 0 -17 368 -381 385 -381 8 0 15 -9 15 -20 0 -13 7 -20 20 -20 11 0 20 -4
20 -10 0 -5 7 -10 16 -10 8 0 33 -18 54 -40 21 -22 45 -40 52 -40 7 0 20 -9
28 -20 8 -11 21 -20 30 -20 9 0 22 -9 30 -20 8 -11 21 -20 30 -20 9 0 22 -9
30 -20 8 -11 22 -20 32 -20 10 0 18 -4 18 -10 0 -5 9 -10 20 -10 11 0 20 -4
20 -10 0 -5 8 -10 18 -10 10 0 24 -9 32 -20 8 -11 22 -20 32 -20 10 0 18 -4
18 -10 0 -5 8 -10 18 -10 10 0 24 -9 32 -20 8 -12 26 -20 42 -20 15 0 28 -4
28 -10 0 -5 9 -10 20 -10 11 0 20 -4 20 -10 0 -5 9 -10 20 -10 11 0 20 -4 20
-10 0 -5 14 -10 30 -10 17 0 30 -4 30 -10 0 -5 9 -10 20 -10 11 0 20 -4 20
-10 0 -5 9 -10 20 -10 11 0 20 -4 20 -10 0 -5 14 -10 30 -10 17 0 30 -4 30
-10 0 -5 18 -10 40 -10 22 0 40 -4 40 -10 0 -5 9 -10 20 -10 11 0 20 -4 20
-10 0 -5 14 -10 30 -10 17 0 30 -4 30 -10 0 -5 23 -10 50 -10 28 0 50 -4 50
-10 0 -5 13 -10 29 -10 16 0 32 -6 34 -12 4 -10 8 -9 17 2 9 11 13 12 17 3 2
-7 18 -13 34 -13 16 0 29 -4 29 -10 0 -6 27 -10 60 -10 33 0 60 -4 60 -10 0
-6 40 -10 100 -10 60 0 100 -4 100 -10 0 -6 97 -10 270 -10 173 0 270 4 270
10 0 6 37 10 90 10 53 0 90 4 90 10 0 6 27 10 60 10 33 0 60 4 60 10 0 6 18
10 40 10 22 0 40 5 40 10 0 6 18 10 40 10 22 0 40 5 40 10 0 6 23 10 50 10 28
0 50 5 50 10 0 6 9 10 20 10 11 0 20 5 20 10 0 6 14 10 30 10 17 0 30 5 30 10
0 6 14 10 30 10 17 0 30 5 30 10 0 6 18 10 40 10 22 0 40 5 40 10 0 6 9 10 20
10 11 0 20 5 20 10 0 6 9 10 20 10 11 0 20 5 20 10 0 6 14 10 30 10 17 0 30 5
30 10 0 6 9 10 20 10 11 0 20 5 20 10 0 6 9 10 20 10 11 0 20 5 20 10 0 6 9
10 20 10 11 0 20 5 20 10 0 6 13 10 28 10 16 0 34 8 42 20 8 11 22 20 32 20
10 0 18 5 18 10 0 6 8 10 18 10 10 0 24 9 32 20 8 11 22 20 32 20 10 0 18 5
18 10 0 6 8 10 18 10 10 0 24 9 32 20 8 11 21 20 30 20 9 0 22 9 30 20 8 11
21 20 30 20 9 0 22 9 30 20 8 11 21 20 30 20 9 0 22 9 30 20 8 11 20 20 28 20
7 0 35 23 62 50 27 28 54 50 59 50 14 0 361 347 361 361 0 5 23 32 50 59 28
27 50 54 50 60 0 7 14 25 30 40 17 15 30 34 30 42 0 7 9 20 20 28 11 8 20 21
20 30 0 9 9 22 20 30 11 8 20 21 20 30 0 9 9 22 20 30 11 8 20 22 20 32 0 10
5 18 10 18 6 0 10 8 10 18 0 10 9 24 20 32 11 8 20 22 20 32 0 10 5 18 10 18
6 0 10 8 10 18 0 10 9 24 20 32 12 8 20 26 20 42 0 15 5 28 10 28 6 0 10 9 10
20 0 11 5 20 10 20 6 0 10 9 10 20 0 11 5 20 10 20 6 0 10 9 10 20 0 11 5 20
10 20 6 0 10 14 10 30 0 17 5 30 10 30 6 0 10 9 10 20 0 11 5 20 10 20 6 0 10
14 10 30 0 17 5 30 10 30 6 0 10 14 10 30 0 17 5 30 10 30 6 0 10 14 10 30 0
17 5 30 10 30 6 0 10 14 10 30 0 17 5 30 10 30 6 0 10 14 10 30 0 17 5 30 10
30 6 0 10 14 10 30 0 17 5 30 10 30 6 0 10 23 10 50 0 28 5 50 10 50 6 0 10
13 10 29 0 16 6 32 13 34 9 4 8 8 -3 17 -11 9 -12 13 -2 17 7 3 12 24 12 54 0
27 5 49 10 49 6 0 10 36 10 89 0 62 4 91 13 94 9 4 8 8 -3 17 -11 9 -12 13 -2
17 16 6 18 3263 2 3263 -6 0 -10 43 -10 110 0 67 -4 110 -10 110 -5 0 -10 23
-10 50 0 28 -4 50 -10 50 -5 0 -10 23 -10 50 0 28 -4 50 -10 50 -5 0 -10 18
-10 40 0 22 -4 40 -10 40 -5 0 -10 18 -10 40 0 22 -4 40 -10 40 -5 0 -10 14
-10 30 0 17 -4 30 -10 30 -5 0 -10 14 -10 30 0 17 -4 30 -10 30 -5 0 -10 14
-10 30 0 17 -4 30 -10 30 -5 0 -10 14 -10 30 0 17 -4 30 -10 30 -5 0 -10 14
-10 30 0 17 -4 30 -10 30 -5 0 -10 9 -10 20 0 11 -4 20 -10 20 -5 0 -10 9 -10
20 0 11 -4 20 -10 20 -5 0 -10 14 -10 30 0 17 -4 30 -10 30 -5 0 -10 9 -10 20
0 11 -4 20 -10 20 -5 0 -10 9 -10 20 0 11 -4 20 -10 20 -5 0 -10 9 -10 20 0
11 -4 20 -10 20 -5 0 -10 8 -10 18 0 10 -9 24 -20 32 -11 8 -20 22 -20 32 0
10 -4 18 -10 18 -5 0 -10 8 -10 18 0 10 -9 24 -20 32 -11 8 -20 22 -20 32 0
10 -4 18 -10 18 -5 0 -10 7 -10 16 0 9 -13 29 -30 44 -16 15 -30 38 -30 50 0
12 -17 38 -40 60 -22 21 -40 45 -40 52 0 7 -9 20 -20 28 -11 8 -20 20 -20 28
0 7 -27 40 -60 72 -33 32 -60 64 -60 70 0 13 -267 280 -281 280 -5 0 -32 23
-59 50 -27 28 -55 50 -62 50 -8 0 -20 9 -28 20 -8 11 -21 20 -28 20 -8 0 -27
14 -42 30 -15 17 -34 30 -42 30 -7 0 -20 9 -28 20 -8 11 -21 20 -30 20 -9 0
-22 9 -30 20 -8 11 -22 20 -32 20 -10 0 -18 5 -18 10 0 6 -8 10 -18 10 -10 0
-24 9 -32 20 -8 11 -22 20 -32 20 -10 0 -18 5 -18 10 0 6 -8 10 -18 10 -10 0
-24 9 -32 20 -8 11 -26 20 -40 20 -14 0 -32 9 -40 20 -8 12 -26 20 -42 20 -15
0 -28 5 -28 10 0 6 -9 10 -20 10 -11 0 -20 5 -20 10 0 6 -9 10 -20 10 -11 0
-20 5 -20 10 0 6 -9 10 -20 10 -11 0 -20 5 -20 10 0 6 -13 10 -30 10 -16 0
-30 5 -30 10 0 6 -9 10 -20 10 -11 0 -20 5 -20 10 0 6 -13 10 -30 10 -16 0
-30 5 -30 10 0 6 -13 10 -30 10 -16 0 -30 5 -30 10 0 6 -13 10 -30 10 -16 0
-30 5 -30 10 0 6 -13 10 -30 10 -16 0 -30 5 -30 10 0 6 -22 10 -50 10 -27 0
-50 5 -50 10 0 6 -22 10 -50 10 -27 0 -50 5 -50 10 0 6 -22 10 -50 10 -27 0
-50 5 -50 10 0 6 -22 10 -50 10 -27 0 -50 5 -50 10 0 6 -37 10 -90 10 -53 0
-90 4 -90 10 0 16 -417 13 -424 -2 -5 -10 -7 -10 -12 0 -7 14 -44 16 -44 2z
m560 -500 c0 -6 30 -10 70 -10 40 0 70 -4 70 -10 0 -5 13 -10 29 -10 16 0 32
-6 34 -12 4 -10 8 -9 17 2 9 11 13 12 17 3 2 -7 18 -13 34 -13 16 0 29 -4 29
-10 0 -5 23 -10 50 -10 28 0 50 -4 50 -10 0 -5 14 -10 30 -10 17 0 30 -4 30
-10 0 -5 9 -10 20 -10 11 0 20 -4 20 -10 0 -5 14 -10 30 -10 17 0 30 -4 30
-10 0 -5 14 -10 30 -10 17 0 30 -4 30 -10 0 -5 9 -10 20 -10 11 0 20 -4 20
-10 0 -5 14 -10 30 -10 17 0 30 -4 30 -10 0 -5 9 -10 20 -10 11 0 20 -4 20
-10 0 -5 9 -10 20 -10 11 0 20 -4 20 -10 0 -5 9 -10 20 -10 11 0 20 -4 20 -10
0 -5 9 -10 20 -10 11 0 20 -4 20 -10 0 -5 9 -10 20 -10 11 0 20 -4 20 -10 0
-5 7 -10 16 -10 9 0 29 -13 44 -30 15 -16 35 -30 44 -30 9 0 16 -4 16 -10 0
-5 7 -10 16 -10 9 0 29 -13 44 -30 15 -16 35 -30 44 -30 9 0 16 -4 16 -10 0
-5 7 -10 16 -10 8 0 37 -22 64 -50 27 -27 54 -50 59 -50 15 0 341 -327 341
-341 0 -6 14 -24 30 -39 17 -15 30 -35 30 -44 0 -9 8 -16 20 -16 13 0 20 -7
20 -20 0 -11 5 -20 10 -20 6 0 10 -8 10 -18 0 -10 9 -24 20 -32 11 -8 20 -21
20 -30 0 -9 9 -22 20 -30 11 -8 20 -21 20 -30 0 -9 9 -22 20 -30 11 -8 20 -26
20 -40 0 -14 9 -32 20 -40 11 -8 20 -22 20 -32 0 -10 5 -18 10 -18 6 0 10 -9
10 -20 0 -11 5 -20 10 -20 6 0 10 -9 10 -20 0 -11 5 -20 10 -20 6 0 10 -9 10
-20 0 -11 5 -20 10 -20 6 0 10 -13 10 -30 0 -16 5 -30 10 -30 6 0 10 -9 10
-20 0 -11 5 -20 10 -20 6 0 10 -9 10 -20 0 -11 5 -20 10 -20 6 0 10 -13 10
-30 0 -16 5 -30 10 -30 6 0 10 -13 10 -30 0 -16 5 -30 10 -30 6 0 10 -13 10
-30 0 -16 5 -30 10 -30 6 0 10 -22 10 -50 0 -27 5 -50 10 -50 6 0 10 -9 10
-20 0 -11 5 -20 10 -20 6 0 10 -27 10 -60 0 -33 4 -60 10 -60 6 0 10 -30 10
-70 0 -40 4 -70 10 -70 6 0 10 -50 10 -129 0 -94 3 -131 13 -134 9 -4 8 -8 -3
-16 -13 -10 -13 -12 0 -21 13 -9 13 -11 0 -20 -13 -9 -13 -11 0 -20 13 -9 13
-11 0 -20 -13 -9 -13 -11 0 -20 13 -9 13 -11 0 -20 -13 -9 -13 -11 0 -20 13
-9 13 -11 0 -20 -13 -9 -13 -11 0 -20 13 -9 13 -11 0 -20 -13 -9 -13 -11 0
-20 13 -9 13 -11 0 -20 -13 -9 -13 -11 0 -20 13 -9 13 -11 0 -20 -13 -9 -13
-11 0 -20 13 -9 13 -11 0 -20 -13 -9 -13 -11 0 -20 13 -9 13 -11 0 -20 -13 -9
-13 -11 0 -20 13 -9 13 -11 0 -20 -13 -9 -13 -11 0 -20 13 -9 13 -11 0 -20
-13 -9 -13 -11 0 -20 13 -9 13 -11 0 -20 -13 -9 -13 -11 0 -20 13 -9 13 -11 0
-20 -13 -9 -13 -11 0 -20 13 -9 13 -11 0 -20 -13 -9 -13 -11 0 -20 13 -9 13
-11 0 -20 -13 -9 -13 -11 0 -20 13 -9 13 -11 0 -20 -13 -9 -13 -11 0 -20 13
-9 13 -11 0 -20 -13 -9 -13 -11 0 -20 13 -9 13 -11 0 -20 -13 -9 -13 -11 0
-20 13 -9 13 -11 0 -20 -13 -9 -13 -11 0 -20 13 -9 13 -11 0 -20 -13 -9 -13
-11 0 -20 13 -9 13 -11 0 -20 -13 -9 -13 -11 0 -20 13 -9 13 -11 0 -20 -13 -9
-13 -11 0 -20 13 -9 13 -11 0 -20 -13 -9 -13 -11 0 -20 13 -9 13 -11 0 -20
-13 -9 -13 -11 0 -20 13 -9 13 -11 0 -20 -13 -9 -13 -11 0 -20 13 -9 13 -11 0
-20 -13 -9 -13 -11 0 -20 13 -9 13 -11 0 -20 -13 -9 -13 -11 0 -20 13 -9 13
-11 0 -20 -13 -9 -13 -11 0 -20 13 -9 13 -11 0 -20 -13 -9 -13 -11 0 -20 13
-9 13 -11 0 -20 -13 -9 -13 -11 0 -20 13 -9 13 -11 0 -20 -13 -9 -13 -11 0
-20 13 -9 13 -11 0 -20 -13 -9 -13 -11 0 -20 13 -9 13 -11 0 -20 -13 -9 -13
-11 0 -20 13 -9 13 -11 0 -20 -13 -9 -13 -11 0 -20 13 -9 13 -11 0 -20 -13 -9
-13 -11 0 -20 13 -9 13 -11 0 -20 -13 -9 -13 -11 0 -20 13 -9 13 -11 0 -20
-13 -9 -13 -11 0 -20 13 -9 13 -11 0 -20 -13 -9 -13 -11 0 -20 13 -9 13 -11 0
-20 -13 -9 -13 -11 0 -20 13 -9 13 -11 0 -20 -13 -9 -13 -11 0 -20 13 -9 13
-11 0 -20 -13 -9 -13 -11 0 -20 13 -9 13 -11 0 -20 -13 -9 -13 -11 0 -20 13
-9 13 -11 0 -20 -13 -9 -13 -11 0 -20 13 -9 13 -11 0 -20 -13 -9 -13 -11 0
-20 13 -9 13 -11 0 -20 -13 -9 -13 -11 0 -20 13 -9 13 -11 0 -20 -13 -9 -13
-11 0 -20 13 -9 13 -11 0 -20 -13 -9 -13 -11 0 -20 13 -9 13 -11 0 -20 -13 -9
-13 -11 0 -20 13 -9 13 -11 0 -20 -13 -9 -13 -11 0 -20 13 -9 13 -11 0 -20
-13 -9 -13 -11 0 -20 13 -9 13 -11 0 -20 -13 -9 -13 -11 0 -20 13 -9 13 -11 0
-20 -13 -9 -13 -11 0 -20 13 -9 13 -11 0 -20 -13 -9 -13 -11 0 -20 13 -9 13
-11 0 -20 -13 -9 -13 -11 0 -20 13 -9 13 -11 0 -20 -13 -9 -13 -11 0 -20 13
-9 13 -11 0 -20 -13 -9 -13 -11 0 -20 13 -9 13 -11 0 -20 -13 -9 -13 -11 0
-20 13 -9 13 -11 0 -20 -13 -9 -13 -11 0 -20 13 -9 13 -11 0 -20 -13 -9 -13
-11 0 -20 13 -9 13 -11 0 -20 -13 -9 -13 -11 0 -20 13 -9 13 -11 0 -20 -13 -9
-13 -11 0 -20 13 -9 13 -11 0 -20 -13 -9 -13 -11 0 -20 13 -9 13 -11 0 -20
-13 -9 -13 -11 0 -20 13 -9 13 -11 0 -20 -13 -9 -13 -11 0 -20 13 -9 13 -11 0
-20 -13 -9 -13 -11 0 -20 13 -9 13 -11 0 -20 -13 -9 -13 -11 0 -20 13 -9 13
-11 0 -20 -13 -9 -13 -11 0 -20 13 -9 13 -11 0 -20 -13 -9 -13 -11 0 -20 13
-9 13 -11 0 -20 -13 -9 -13 -11 0 -20 13 -9 13 -11 0 -20 -13 -9 -13 -11 0
-20 13 -9 13 -11 0 -20 -13 -9 -13 -11 0 -20 13 -9 13 -11 0 -20 -13 -9 -13
-11 0 -21 11 -8 12 -12 3 -16 -10 -3 -13 -40 -13 -134 0 -79 -4 -129 -10 -129
-6 0 -10 -27 -10 -60 0 -33 -4 -60 -10 -60 -5 0 -10 -18 -10 -39 0 -22 -5 -42
-12 -44 -10 -4 -9 -8 2 -17 11 -9 12 -13 3 -17 -7 -2 -13 -13 -13 -24 0 -10
-4 -19 -10 -19 -5 0 -10 -18 -10 -40 0 -22 -4 -40 -10 -40 -5 0 -10 -13 -10
-30 0 -16 -4 -30 -10 -30 -5 0 -10 -13 -10 -30 0 -16 -4 -30 -10 -30 -5 0 -10
-9 -10 -20 0 -11 -4 -20 -10 -20 -5 0 -10 -18 -10 -40 0 -22 -4 -40 -10 -40
-5 0 -10 -9 -10 -20 0 -11 -4 -20 -10 -20 -5 0 -10 -9 -10 -20 0 -11 -4 -20
-10 -20 -5 0 -10 -9 -10 -20 0 -11 -4 -20 -10 -20 -5 0 -10 -13 -10 -28 0 -16
-8 -34 -20 -42 -11 -8 -20 -22 -20 -32 0 -10 -4 -18 -10 -18 -5 0 -10 -9 -10
-20 0 -11 -4 -20 -10 -20 -5 0 -10 -8 -10 -18 0 -10 -9 -24 -20 -32 -11 -8
-20 -22 -20 -32 0 -10 -4 -18 -10 -18 -5 0 -10 -7 -10 -16 0 -9 -13 -29 -30
-44 -16 -15 -30 -38 -30 -50 0 -13 -23 -44 -60 -80 -33 -32 -60 -65 -60 -72 0
-8 -9 -20 -20 -28 -11 -8 -20 -20 -20 -28 0 -18 -46 -62 -65 -62 -8 0 -15 -7
-15 -15 0 -20 -125 -145 -145 -145 -8 0 -15 -9 -15 -20 0 -12 -7 -20 -16 -20
-9 0 -29 -13 -44 -30 -15 -16 -33 -30 -40 -30 -6 0 -29 -18 -50 -40 -21 -22
-45 -40 -52 -40 -7 0 -20 -9 -28 -20 -8 -11 -21 -20 -28 -20 -8 0 -27 -13 -42
-30 -15 -16 -35 -30 -44 -30 -9 0 -16 -4 -16 -10 0 -5 -9 -10 -20 -10 -11 0
-20 -4 -20 -10 0 -5 -9 -10 -20 -10 -11 0 -20 -4 -20 -10 0 -5 -9 -10 -20 -10
-11 0 -20 -4 -20 -10 0 -5 -9 -10 -20 -10 -11 0 -20 -4 -20 -10 0 -5 -8 -10
-18 -10 -10 0 -24 -9 -32 -20 -8 -12 -26 -20 -42 -20 -15 0 -28 -4 -28 -10 0
-5 -9 -10 -20 -10 -11 0 -20 -4 -20 -10 0 -5 -9 -10 -20 -10 -11 0 -20 -4 -20
-10 0 -5 -13 -10 -30 -10 -16 0 -30 -4 -30 -10 0 -5 -13 -10 -30 -10 -16 0
-30 -4 -30 -10 0 -5 -9 -10 -20 -10 -11 0 -20 -4 -20 -10 0 -5 -18 -10 -40
-10 -22 0 -40 -4 -40 -10 0 -5 -13 -10 -30 -10 -16 0 -30 -4 -30 -10 0 -5 -18
-10 -40 -10 -22 0 -40 -4 -40 -10 0 -5 -18 -10 -40 -10 -22 0 -40 -4 -40 -10
0 -6 -30 -10 -70 -10 -40 0 -70 -4 -70 -10 0 -6 -40 -10 -100 -10 -60 0 -100
-4 -100 -10 0 -16 -277 -13 -283 3 -4 9 -8 8 -17 -3 -9 -11 -13 -12 -17 -2 -3
8 -32 12 -94 12 -53 0 -89 4 -89 10 0 6 -30 10 -70 10 -40 0 -70 4 -70 10 0 6
-22 10 -50 10 -27 0 -50 5 -50 10 0 6 -13 10 -30 10 -16 0 -30 5 -30 10 0 6
-18 10 -40 10 -22 0 -40 5 -40 10 0 6 -18 10 -40 10 -22 0 -40 5 -40 10 0 6
-13 10 -30 10 -16 0 -30 5 -30 10 0 6 -9 10 -20 10 -11 0 -20 5 -20 10 0 6 -9
10 -20 10 -11 0 -20 5 -20 10 0 6 -13 10 -30 10 -16 0 -30 5 -30 10 0 6 -9 10
-20 10 -11 0 -20 5 -20 10 0 6 -9 10 -20 10 -11 0 -20 5 -20 10 0 6 -13 10
-28 10 -16 0 -34 8 -42 20 -8 11 -22 20 -32 20 -10 0 -18 5 -18 10 0 6 -9 10
-20 10 -11 0 -20 5 -20 10 0 6 -9 10 -20 10 -11 0 -20 5 -20 10 0 6 -8 10 -18
10 -10 0 -24 9 -32 20 -8 11 -22 20 -32 20 -10 0 -18 5 -18 10 0 6 -7 10 -16
10 -9 0 -29 14 -44 30 -15 17 -34 30 -42 30 -7 0 -20 9 -28 20 -8 11 -20 20
-28 20 -7 0 -48 36 -92 80 -44 44 -84 80 -90 80 -14 0 -120 106 -120 120 0 6
-31 42 -70 80 -38 38 -70 74 -70 81 0 6 -13 24 -30 39 -16 15 -30 33 -30 40 0
7 -14 25 -30 40 -17 15 -30 34 -30 42 0 7 -9 20 -20 28 -11 8 -20 22 -20 32 0
10 -4 18 -10 18 -5 0 -10 8 -10 18 0 10 -9 24 -20 32 -11 8 -20 22 -20 32 0
10 -4 18 -10 18 -5 0 -10 9 -10 20 0 11 -4 20 -10 20 -5 0 -10 8 -10 18 0 10
-9 24 -20 32 -12 8 -20 26 -20 42 0 15 -4 28 -10 28 -5 0 -10 9 -10 20 0 11
-4 20 -10 20 -5 0 -10 9 -10 20 0 11 -4 20 -10 20 -5 0 -10 14 -10 30 0 17 -4
30 -10 30 -5 0 -10 9 -10 20 0 11 -4 20 -10 20 -5 0 -10 14 -10 30 0 17 -4 30
-10 30 -5 0 -10 9 -10 20 0 11 -4 20 -10 20 -5 0 -10 18 -10 40 0 22 -4 40
-10 40 -5 0 -10 18 -10 40 0 22 -4 40 -10 40 -5 0 -10 14 -10 30 0 17 -4 30
-10 30 -5 0 -10 23 -10 50 0 28 -4 50 -10 50 -6 0 -10 30 -10 70 0 40 -4 70
-10 70 -15 0 -12 70 4 86 12 12 162 14 1020 14 664 0 1006 3 1006 10 0 6 9 10
20 10 11 0 20 5 20 10 0 6 7 10 15 10 26 0 85 66 85 95 0 14 5 25 10 25 6 0
10 9 10 19 0 11 6 22 13 24 9 4 8 8 -3 16 -13 10 -13 12 0 22 11 8 12 12 3 16
-7 2 -13 18 -13 34 0 16 -4 29 -10 29 -5 0 -10 11 -10 25 0 29 -59 95 -85 95
-8 0 -15 5 -15 10 0 6 -9 10 -20 10 -11 0 -20 5 -20 10 0 7 -345 10 -1016 10
-867 0 -1018 2 -1030 14 -12 12 -14 86 -14 450 l0 436 1030 0 c680 0 1030 3
1030 10 0 6 8 10 18 10 10 0 24 9 32 20 8 11 20 20 28 20 18 0 42 25 42 44 0
9 5 16 10 16 6 0 10 9 10 20 0 11 5 20 10 20 6 0 10 14 10 30 0 17 5 30 10 30
6 0 10 14 10 30 0 17 -4 30 -10 30 -5 0 -10 14 -10 30 0 17 -4 30 -10 30 -5 0
-10 7 -10 15 0 20 -85 105 -105 105 -8 0 -15 5 -15 10 0 6 -13 10 -30 10 -16
0 -30 5 -30 10 0 7 -343 10 -1010 10 l-1010 0 0 425 0 426 26 26 c21 21 28 23
35 12 8 -12 11 -12 19 1 9 13 11 13 20 0 9 -13 11 -13 20 0 9 13 11 13 20 0 9
-13 11 -13 20 0 9 13 11 13 20 0 9 -13 11 -13 20 0 9 13 11 13 20 0 9 -13 11
-13 20 0 9 13 11 13 20 0 9 -13 11 -13 20 0 9 13 11 13 20 0 9 -13 11 -13 20
0 9 13 11 13 20 0 9 -13 11 -13 20 0 9 13 11 13 20 0 9 -13 11 -13 20 0 9 13
11 13 20 0 9 -13 11 -13 20 0 9 13 11 13 20 0 9 -13 11 -13 20 0 9 13 11 13
20 0 9 -13 11 -13 20 0 9 13 11 13 20 0 9 -13 11 -13 20 0 9 13 11 13 20 0 9
-13 11 -13 20 0 9 13 11 13 20 0 9 -13 11 -13 20 0 9 13 11 13 20 0 9 -13 11
-13 20 0 9 13 11 13 20 0 9 -13 11 -13 20 0 9 13 11 13 20 0 9 -13 11 -13 20
0 9 13 11 13 20 0 9 -13 11 -13 20 0 9 13 11 13 20 0 9 -13 11 -13 20 0 9 13
11 13 20 0 9 -13 11 -13 20 0 9 13 11 13 20 0 9 -13 11 -13 20 0 9 13 11 13
20 0 9 -13 11 -13 20 0 9 13 11 13 20 0 9 -13 11 -13 20 0 9 13 11 13 20 0 9
-13 11 -13 20 0 9 13 11 13 20 0 9 -13 11 -13 20 0 9 13 11 13 20 0 9 -13 11
-13 20 0 9 13 11 13 20 0 9 -13 11 -13 20 0 9 13 11 13 20 0 9 -13 11 -13 20
0 9 13 11 13 20 0 9 -13 11 -13 20 0 9 13 11 13 20 0 9 -13 11 -13 20 0 9 13
11 13 20 0 9 -13 11 -13 20 0 9 13 11 13 20 0 9 -13 11 -13 20 0 9 13 11 13
20 0 9 -13 11 -13 20 0 9 13 11 13 20 0 9 -13 11 -13 20 0 9 13 11 13 20 0 9
-13 11 -13 20 0 9 13 11 13 20 0 9 -13 11 -13 20 0 9 13 11 13 20 0 9 -13 11
-13 20 0 9 13 11 13 20 0 9 -13 11 -13 20 0 9 13 11 13 20 0 9 -13 11 -13 20
0 9 13 11 13 20 0 9 -13 11 -13 20 0 9 13 11 13 20 0 9 -13 11 -13 20 0 9 13
11 13 20 0 9 -13 11 -13 20 0 9 13 11 13 20 0 9 -13 11 -13 20 0 9 13 11 13
20 0 9 -13 11 -13 20 0 9 13 11 13 20 0 9 -13 11 -13 20 0 9 13 11 13 20 0 9
-13 11 -13 20 0 9 13 11 13 20 0 9 -13 11 -13 20 0 9 13 11 13 21 0 8 -11 12
-12 16 -2 2 6 18 12 34 12 16 0 29 5 29 10 0 6 11 10 25 10 29 0 115 79 115
105 0 8 5 15 10 15 6 0 10 39 10 98 0 86 -2 99 -20 112 -11 8 -20 20 -20 28 0
18 -46 62 -65 62 -8 0 -15 5 -15 10 0 6 -13 10 -30 10 -16 0 -30 5 -30 10 0 7
-343 10 -1010 10 l-1010 0 0 30 c0 17 5 30 10 30 6 0 10 37 10 90 0 53 4 90
10 90 6 0 10 23 10 50 0 28 5 50 10 50 6 0 10 14 10 30 0 17 5 30 10 30 6 0
10 18 10 40 0 22 5 40 10 40 6 0 10 14 10 30 0 17 5 30 10 30 6 0 10 14 10 30
0 17 5 30 10 30 6 0 10 14 10 30 0 17 5 30 10 30 6 0 10 9 10 20 0 11 5 20 10
20 6 0 10 13 10 28 0 16 8 34 20 42 12 8 20 26 20 42 0 15 5 28 10 28 6 0 10
9 10 20 0 11 5 20 10 20 6 0 10 8 10 18 0 10 9 24 20 32 11 8 20 26 20 40 0
14 9 32 20 40 11 8 20 22 20 32 0 10 5 18 10 18 6 0 10 8 10 18 0 10 9 24 20
32 11 8 20 21 20 30 0 9 9 22 20 30 11 8 20 21 20 28 0 8 14 27 30 42 17 15
30 33 30 40 0 7 14 25 30 40 17 15 30 33 30 39 0 15 346 361 361 361 6 0 24
14 39 30 15 17 33 30 40 30 7 0 25 14 40 30 15 17 35 30 44 30 9 0 16 5 16 10
0 6 7 10 16 10 9 0 29 14 44 30 15 17 35 30 44 30 9 0 16 5 16 10 0 6 8 10 18
10 10 0 24 9 32 20 8 11 26 20 40 20 14 0 32 9 40 20 8 11 22 20 32 20 10 0
18 5 18 10 0 6 9 10 20 10 11 0 20 5 20 10 0 6 14 10 30 10 17 0 30 5 30 10 0
6 9 10 20 10 11 0 20 5 20 10 0 6 9 10 20 10 11 0 20 5 20 10 0 6 14 10 30 10
17 0 30 5 30 10 0 6 14 10 30 10 17 0 30 5 30 10 0 6 14 10 30 10 17 0 30 5
30 10 0 6 14 10 30 10 17 0 30 5 30 10 0 6 18 10 40 10 22 0 40 5 40 10 0 6
18 10 40 10 22 0 40 5 40 10 0 6 14 10 30 10 17 0 30 5 30 10 0 6 33 10 80 10
47 0 80 4 80 10 0 6 113 10 320 10 207 0 320 -4 320 -10z"/>
<path d="M3700 8410 c0 -5 -9 -10 -20 -10 -11 0 -20 -4 -20 -10 0 -5 -7 -10
-15 -10 -19 0 -65 -44 -65 -62 0 -8 -9 -20 -20 -28 -11 -8 -20 -26 -20 -41 0
-15 -6 -30 -12 -32 -10 -4 -9 -8 2 -16 13 -10 13 -12 0 -21 -13 -9 -13 -11 0
-20 13 -9 13 -11 0 -20 -13 -9 -13 -11 0 -20 13 -9 13 -11 0 -21 -11 -8 -12
-12 -2 -16 9 -3 12 -48 12 -174 0 -106 4 -169 10 -169 6 0 10 -33 10 -80 0
-47 4 -80 10 -80 6 0 10 -30 10 -70 0 -40 4 -70 10 -70 6 0 10 -27 10 -60 0
-33 4 -60 10 -60 6 0 10 -13 10 -30 0 -16 5 -30 10 -30 6 0 10 -22 10 -50 0
-27 5 -50 10 -50 6 0 10 -22 10 -50 0 -27 5 -50 10 -50 6 0 10 -13 10 -30 0
-16 5 -30 10 -30 6 0 10 -13 10 -30 0 -16 5 -30 10 -30 6 0 10 -18 10 -40 0
-22 5 -40 10 -40 6 0 10 -18 10 -40 0 -22 5 -40 10 -40 6 0 10 -9 10 -20 0
-11 5 -20 10 -20 6 0 10 -13 10 -30 0 -16 5 -30 10 -30 6 0 10 -13 10 -30 0
-16 5 -30 10 -30 6 0 10 -9 10 -20 0 -11 5 -20 10 -20 6 0 10 -13 10 -30 0
-16 5 -30 10 -30 6 0 10 -13 10 -28 0 -16 8 -34 20 -42 12 -8 20 -26 20 -42 0
-15 5 -28 10 -28 6 0 10 -9 10 -20 0 -11 5 -20 10 -20 6 0 10 -9 10 -20 0 -11
5 -20 10 -20 6 0 10 -9 10 -20 0 -11 5 -20 10 -20 6 0 10 -9 10 -20 0 -11 5
-20 10 -20 6 0 10 -9 10 -20 0 -11 5 -20 10 -20 6 0 10 -9 10 -20 0 -11 5 -20
10 -20 6 0 10 -9 10 -20 0 -11 5 -20 10 -20 6 0 10 -9 10 -20 0 -11 5 -20 10
-20 6 0 10 -9 10 -20 0 -11 5 -20 10 -20 6 0 10 -8 10 -18 0 -10 9 -24 20 -32
11 -8 20 -22 20 -32 0 -10 5 -18 10 -18 6 0 10 -8 10 -18 0 -10 9 -24 20 -32
11 -8 20 -22 20 -32 0 -10 5 -18 10 -18 6 0 10 -8 10 -18 0 -10 9 -24 20 -32
11 -8 20 -21 20 -30 0 -9 9 -22 20 -30 11 -8 20 -21 20 -28 0 -8 14 -27 30
-42 17 -15 30 -33 30 -40 0 -7 14 -25 30 -40 17 -15 30 -33 30 -40 0 -6 18
-29 40 -50 22 -21 40 -44 40 -50 0 -6 18 -29 40 -50 22 -21 40 -43 40 -49 0
-14 487 -501 501 -501 5 0 32 -22 59 -50 27 -27 54 -50 60 -50 6 0 29 -18 50
-40 21 -22 45 -40 52 -40 7 0 20 -9 28 -20 8 -11 21 -20 28 -20 8 0 27 -13 42
-30 15 -16 35 -30 44 -30 9 0 16 -4 16 -10 0 -5 7 -10 16 -10 9 0 29 -13 44
-30 15 -16 35 -30 44 -30 9 0 16 -4 16 -10 0 -5 8 -10 18 -10 10 0 24 -9 32
-20 8 -11 21 -20 30 -20 9 0 22 -9 30 -20 8 -11 22 -20 32 -20 10 0 18 -4 18
-10 0 -5 9 -10 20 -10 11 0 20 -4 20 -10 0 -5 9 -10 20 -10 11 0 20 -4 20 -10
0 -5 9 -10 20 -10 11 0 20 -4 20 -10 0 -5 9 -10 20 -10 11 0 20 -4 20 -10 0
-5 9 -10 20 -10 11 0 20 -4 20 -10 0 -5 8 -10 18 -10 10 0 24 -9 32 -20 8 -12
26 -20 42 -20 15 0 28 -4 28 -10 0 -5 9 -10 20 -10 11 0 20 -4 20 -10 0 -5 9
-10 20 -10 11 0 20 -4 20 -10 0 -5 9 -10 20 -10 11 0 20 -4 20 -10 0 -5 9 -10
20 -10 11 0 20 -4 20 -10 0 -5 14 -10 30 -10 17 0 30 -4 30 -10 0 -5 14 -10
30 -10 17 0 30 -4 30 -10 0 -5 9 -10 20 -10 11 0 20 -4 20 -10 0 -5 14 -10 30
-10 17 0 30 -4 30 -10 0 -5 14 -10 30 -10 17 0 30 -4 30 -10 0 -5 9 -10 20
-10 11 0 20 -4 20 -10 0 -5 18 -10 40 -10 22 0 40 -4 40 -10 0 -5 18 -10 40
-10 22 0 40 -4 40 -10 0 -5 14 -10 30 -10 17 0 30 -4 30 -10 0 -5 14 -10 30
-10 17 0 30 -4 30 -10 0 -5 18 -10 40 -10 22 0 40 -4 40 -10 0 -6 27 -10 60
-10 33 0 60 -4 60 -10 0 -5 14 -10 30 -10 17 0 30 -4 30 -10 0 -5 23 -10 50
-10 28 0 50 -4 50 -10 0 -6 37 -10 90 -10 53 0 90 -4 90 -10 0 -5 22 -10 49
-10 30 0 51 -5 54 -12 4 -10 8 -9 17 2 9 11 13 12 17 3 3 -9 31 -13 90 -13 60
0 89 -4 99 -14 12 -12 14 -123 14 -730 l0 -716 -39 0 c-22 0 -42 -6 -45 -12
-5 -11 -7 -11 -12 0 -3 6 -18 12 -34 12 -16 0 -31 -6 -34 -12 -5 -10 -7 -10
-12 0 -7 16 -61 16 -68 0 -5 -11 -7 -11 -12 0 -3 6 -18 12 -34 12 -16 0 -31
-6 -34 -12 -5 -11 -7 -11 -12 0 -3 6 -18 12 -34 12 -16 0 -31 -6 -34 -12 -5
-11 -7 -11 -12 0 -7 16 -61 16 -68 0 -5 -10 -7 -10 -12 0 -3 6 -18 12 -34 12
-16 0 -31 -6 -34 -12 -5 -10 -7 -10 -12 0 -7 16 -61 16 -68 0 -5 -11 -7 -11
-12 0 -7 16 -61 16 -68 0 -5 -10 -7 -10 -12 0 -7 16 -61 16 -68 0 -5 -11 -7
-11 -12 0 -3 6 -18 12 -34 12 -16 0 -31 -6 -34 -12 -5 -11 -7 -11 -12 0 -3 6
-18 12 -34 12 -16 0 -31 -6 -34 -12 -5 -10 -7 -10 -12 0 -7 16 -61 16 -68 0
-5 -11 -7 -11 -12 0 -3 6 -18 12 -34 12 -16 0 -31 -6 -34 -12 -5 -11 -7 -11
-12 0 -3 6 -18 12 -34 12 -16 0 -31 -6 -34 -12 -5 -11 -7 -11 -12 0 -7 16 -61
16 -68 0 -5 -10 -7 -10 -12 0 -3 6 -18 12 -34 12 -16 0 -31 -6 -34 -12 -5 -11
-7 -11 -12 0 -3 6 -18 12 -34 12 -16 0 -31 -6 -34 -12 -5 -11 -7 -11 -12 0 -3
6 -18 12 -34 12 -16 0 -31 -6 -34 -12 -5 -11 -7 -11 -12 0 -7 16 -61 16 -68 0
-5 -10 -7 -10 -12 0 -7 16 -61 16 -68 0 -5 -10 -7 -10 -12 0 -3 6 -18 12 -34
12 -16 0 -31 -6 -34 -12 -5 -10 -7 -10 -12 0 -7 16 -61 16 -68 0 -5 -10 -7
-10 -12 0 -7 16 -61 16 -68 0 -5 -11 -7 -11 -12 0 -3 6 -18 12 -34 12 -16 0
-31 -6 -33 -12 -4 -10 -8 -9 -16 2 -10 13 -12 13 -21 0 -9 -13 -11 -13 -20 0
-9 13 -11 13 -20 0 -9 -13 -11 -13 -20 0 -9 13 -11 13 -20 0 -9 -13 -11 -13
-20 0 -9 13 -11 13 -20 0 -9 -13 -11 -13 -20 0 -9 13 -11 13 -20 0 -9 -13 -11
-13 -20 0 -9 13 -11 13 -20 0 -9 -13 -11 -13 -20 0 -9 13 -11 13 -20 0 -9 -13
-11 -13 -21 0 -8 11 -12 12 -16 3 -2 -7 -13 -13 -24 -13 -10 0 -19 -4 -19 -10
0 -5 -7 -10 -15 -10 -26 0 -105 -86 -105 -115 0 -14 -4 -25 -10 -25 -6 0 -10
-30 -10 -70 0 -40 4 -70 10 -70 6 0 10 -11 10 -25 0 -35 100 -135 135 -135 14
0 25 -4 25 -10 0 -7 860 -10 2560 -10 1700 0 2560 3 2560 10 0 6 9 10 20 10
11 0 20 5 20 10 0 6 8 10 18 10 10 0 24 9 32 20 8 11 22 20 32 20 11 0 18 7
18 20 0 11 5 20 10 20 6 0 10 9 10 20 0 11 5 20 10 20 6 0 10 36 10 88 0 76
-3 89 -20 102 -11 8 -20 20 -20 28 0 18 -66 82 -85 82 -8 0 -15 5 -15 10 0 6
-13 10 -30 10 -16 0 -30 5 -30 10 0 15 -57 12 -64 -2 -5 -11 -7 -11 -12 0 -3
6 -18 12 -34 12 -16 0 -31 -6 -34 -12 -5 -11 -7 -11 -12 0 -3 6 -18 12 -34 12
-16 0 -31 -6 -34 -12 -5 -11 -7 -11 -12 0 -3 6 -18 12 -34 12 -16 0 -31 -6
-34 -12 -5 -10 -7 -10 -12 0 -7 16 -61 16 -68 0 -5 -11 -7 -11 -12 0 -7 16
-61 16 -68 0 -5 -10 -7 -10 -12 0 -3 6 -18 12 -34 12 -16 0 -31 -6 -34 -12 -5
-11 -7 -11 -12 0 -3 6 -18 12 -34 12 -16 0 -31 -6 -34 -12 -5 -11 -7 -11 -12
0 -3 6 -18 12 -34 12 -16 0 -31 -6 -34 -12 -5 -11 -7 -11 -12 0 -7 16 -61 16
-68 0 -5 -10 -7 -10 -12 0 -3 6 -18 12 -34 12 -16 0 -31 -6 -34 -12 -5 -11 -7
-11 -12 0 -3 6 -18 12 -34 12 -16 0 -31 -6 -34 -12 -5 -11 -7 -11 -12 0 -3 6
-18 12 -34 12 -16 0 -31 -6 -34 -12 -5 -11 -7 -11 -12 0 -3 6 -18 12 -34 12
-16 0 -31 -6 -34 -12 -5 -11 -7 -11 -12 0 -7 16 -61 16 -68 0 -5 -10 -7 -10
-12 0 -7 16 -61 16 -68 0 -5 -10 -7 -10 -12 0 -3 6 -18 12 -34 12 -16 0 -31
-6 -34 -12 -5 -11 -7 -11 -12 0 -3 6 -18 12 -34 12 -16 0 -31 -6 -34 -12 -5
-11 -7 -11 -12 0 -3 6 -18 12 -34 12 -16 0 -31 -6 -34 -12 -5 -11 -7 -11 -12
0 -3 6 -18 12 -34 12 -16 0 -31 -6 -34 -12 -5 -11 -7 -11 -12 0 -3 6 -18 12
-34 12 -16 0 -31 -6 -34 -12 -5 -11 -7 -11 -12 0 -7 16 -61 16 -68 0 -5 -10
-7 -10 -12 0 -3 6 -18 12 -34 12 -16 0 -31 -6 -34 -12 -5 -11 -7 -11 -12 0 -3
6 -18 12 -34 12 -16 0 -31 -6 -34 -12 -5 -11 -7 -11 -12 0 -3 6 -18 12 -34 12
-16 0 -31 -6 -34 -12 -5 -11 -7 -11 -12 0 -3 6 -18 12 -34 12 -16 0 -31 -6
-34 -12 -5 -11 -7 -11 -12 0 -3 6 -18 12 -34 12 -16 0 -31 -6 -34 -12 -5 -11
-7 -11 -12 0 -3 6 -18 12 -34 12 -16 0 -31 -6 -33 -12 -4 -10 -8 -9 -16 2 -9
13 -12 13 -20 1 -8 -12 -12 -12 -25 2 -14 14 -16 89 -16 721 0 464 3 706 10
706 6 0 10 9 10 20 0 18 7 20 79 20 54 0 81 4 84 13 4 9 8 8 16 -3 10 -13 12
-13 21 0 9 13 11 13 21 0 8 -11 12 -12 16 -2 3 7 24 12 54 12 27 0 49 5 49 10
0 6 30 10 70 10 40 0 70 4 70 10 0 6 30 10 70 10 40 0 70 4 70 10 0 6 14 10
30 10 17 0 30 5 30 10 0 6 23 10 50 10 28 0 50 5 50 10 0 6 23 10 50 10 28 0
50 5 50 10 0 6 14 10 30 10 17 0 30 5 30 10 0 6 14 10 30 10 17 0 30 5 30 10
0 6 14 10 30 10 17 0 30 5 30 10 0 6 18 10 40 10 22 0 40 5 40 10 0 6 9 10 20
10 11 0 20 5 20 10 0 6 14 10 30 10 17 0 30 5 30 10 0 6 14 10 30 10 17 0 30
5 30 10 0 6 13 10 28 10 16 0 34 8 42 20 8 12 26 20 42 20 15 0 28 5 28 10 0
6 14 10 30 10 17 0 30 5 30 10 0 6 9 10 20 10 11 0 20 5 20 10 0 6 9 10 20 10
11 0 20 5 20 10 0 6 9 10 20 10 11 0 20 5 20 10 0 6 13 10 28 10 16 0 34 8 42
20 8 11 22 20 32 20 10 0 18 5 18 10 0 6 13 10 28 10 16 0 34 8 42 20 8 11 22
20 32 20 10 0 18 5 18 10 0 6 9 10 20 10 11 0 20 5 20 10 0 6 8 10 18 10 10 0
24 9 32 20 8 11 22 20 32 20 10 0 18 5 18 10 0 6 8 10 18 10 10 0 24 9 32 20
8 11 22 20 32 20 10 0 18 5 18 10 0 6 8 10 18 10 10 0 24 9 32 20 8 11 21 20
28 20 8 0 27 13 42 30 15 16 34 30 42 30 7 0 20 9 28 20 8 11 21 20 28 20 8 0
27 14 42 30 15 17 34 30 42 30 7 0 20 9 28 20 8 11 20 20 28 20 7 0 40 27 72
60 32 33 64 60 70 60 6 0 46 36 90 80 44 44 86 80 95 80 8 0 15 9 15 20 0 11
7 20 15 20 17 0 125 104 125 120 0 6 27 38 60 70 33 32 60 64 60 70 0 6 32 42
70 80 39 38 70 74 70 81 0 6 13 24 30 39 16 15 30 33 30 40 0 7 14 25 30 40
17 15 30 33 30 40 0 7 13 25 30 40 16 15 30 34 30 42 0 7 9 20 20 28 11 8 20
22 20 32 0 10 5 18 10 18 6 0 10 7 10 16 0 9 14 29 30 44 17 15 30 35 30 44 0
9 5 16 10 16 6 0 10 8 10 18 0 10 9 24 20 32 11 8 20 22 20 32 0 10 5 18 10
18 6 0 10 9 10 20 0 11 5 20 10 20 6 0 10 9 10 20 0 11 5 20 10 20 6 0 10 9
10 20 0 11 5 20 10 20 6 0 10 9 10 20 0 11 5 20 10 20 6 0 10 9 10 20 0 11 5
20 10 20 6 0 10 9 10 20 0 11 5 20 10 20 6 0 10 9 10 20 0 11 5 20 10 20 6 0
10 9 10 20 0 11 5 20 10 20 6 0 10 9 10 20 0 11 5 20 10 20 6 0 10 9 10 20 0
11 5 20 10 20 6 0 10 9 10 20 0 11 5 20 10 20 6 0 10 9 10 20 0 11 5 20 10 20
6 0 10 18 10 40 0 22 5 40 10 40 6 0 10 9 10 20 0 11 5 20 10 20 6 0 10 9 10
20 0 11 5 20 10 20 6 0 10 14 10 30 0 17 5 30 10 30 6 0 10 14 10 30 0 17 5
30 10 30 6 0 10 14 10 30 0 17 5 30 10 30 6 0 10 14 10 30 0 17 5 30 10 30 6
0 10 14 10 30 0 17 5 30 10 30 6 0 10 18 10 40 0 22 5 40 10 40 6 0 10 18 10
40 0 22 5 40 10 40 6 0 10 14 10 30 0 17 5 30 10 30 6 0 10 27 10 60 0 33 4
60 10 60 6 0 10 9 10 20 0 11 5 20 10 20 6 0 10 30 10 70 0 40 4 70 10 70 6 0
10 30 10 70 0 40 4 70 10 70 6 0 10 30 10 69 0 46 4 71 13 74 9 4 8 8 -3 17
-11 9 -12 13 -2 17 8 3 12 36 12 113 0 77 4 110 13 113 9 4 8 8 -3 16 -13 10
-13 12 0 21 13 9 13 11 0 21 -11 8 -12 12 -2 16 15 6 17 163 2 163 -5 0 -10 9
-10 20 0 11 -4 20 -10 20 -5 0 -10 11 -10 25 0 29 -59 95 -85 95 -8 0 -15 5
-15 10 0 6 -9 10 -20 10 -11 0 -20 5 -20 10 0 6 -30 10 -70 10 -40 0 -70 -4
-70 -10 0 -5 -11 -10 -25 -10 -29 0 -115 -79 -115 -105 0 -8 -4 -15 -10 -15
-5 0 -10 -9 -10 -20 0 -11 -4 -20 -10 -20 -6 0 -10 -70 -10 -189 0 -142 -3
-191 -12 -194 -10 -4 -9 -8 2 -17 11 -9 12 -13 3 -17 -9 -3 -13 -28 -13 -74 0
-39 -4 -69 -10 -69 -6 0 -10 -30 -10 -70 0 -40 -4 -70 -10 -70 -6 0 -10 -27
-10 -60 0 -33 -4 -60 -10 -60 -6 0 -10 -27 -10 -60 0 -33 -4 -60 -10 -60 -5 0
-10 -13 -10 -30 0 -16 -4 -30 -10 -30 -5 0 -10 -13 -10 -30 0 -16 -4 -30 -10
-30 -5 0 -10 -18 -10 -40 0 -22 -4 -40 -10 -40 -5 0 -10 -18 -10 -40 0 -22 -4
-40 -10 -40 -5 0 -10 -13 -10 -30 0 -16 -4 -30 -10 -30 -5 0 -10 -13 -10 -30
0 -16 -4 -30 -10 -30 -5 0 -10 -13 -10 -30 0 -16 -4 -30 -10 -30 -5 0 -10 -13
-10 -30 0 -16 -4 -30 -10 -30 -5 0 -10 -9 -10 -20 0 -11 -4 -20 -10 -20 -5 0
-10 -13 -10 -30 0 -16 -4 -30 -10 -30 -5 0 -10 -9 -10 -20 0 -11 -4 -20 -10
-20 -5 0 -10 -9 -10 -20 0 -11 -4 -20 -10 -20 -5 0 -10 -13 -10 -30 0 -16 -4
-30 -10 -30 -5 0 -10 -8 -10 -18 0 -10 -9 -24 -20 -32 -12 -8 -20 -26 -20 -42
0 -15 -4 -28 -10 -28 -5 0 -10 -9 -10 -20 0 -11 -4 -20 -10 -20 -5 0 -10 -8
-10 -18 0 -10 -9 -24 -20 -32 -11 -8 -20 -25 -20 -38 0 -14 -13 -36 -30 -52
-17 -16 -30 -38 -30 -52 0 -13 -9 -30 -20 -38 -11 -8 -20 -21 -20 -30 0 -9 -9
-22 -20 -30 -11 -8 -20 -21 -20 -30 0 -9 -9 -22 -20 -30 -11 -8 -20 -22 -20
-32 0 -10 -4 -18 -10 -18 -5 0 -10 -7 -10 -16 0 -8 -18 -33 -40 -54 -22 -21
-40 -45 -40 -52 0 -7 -9 -20 -20 -28 -11 -8 -20 -21 -20 -28 0 -7 -18 -31 -40
-52 -22 -21 -40 -44 -40 -50 0 -6 -18 -29 -40 -50 -22 -21 -40 -43 -40 -49 0
-15 -387 -401 -401 -401 -6 0 -24 -13 -39 -30 -15 -16 -33 -30 -40 -30 -6 0
-29 -18 -50 -40 -21 -22 -44 -40 -50 -40 -7 0 -25 -13 -40 -30 -15 -16 -33
-30 -40 -30 -7 0 -25 -13 -40 -30 -15 -16 -35 -30 -44 -30 -9 0 -16 -4 -16
-10 0 -5 -7 -10 -16 -10 -9 0 -29 -13 -44 -30 -15 -16 -35 -30 -44 -30 -9 0
-16 -4 -16 -10 0 -5 -9 -10 -20 -10 -11 0 -20 -4 -20 -10 0 -5 -9 -10 -20 -10
-13 0 -20 -7 -20 -20 0 -15 -7 -20 -28 -20 -16 0 -34 -8 -42 -20 -8 -11 -22
-20 -32 -20 -10 0 -18 -4 -18 -10 0 -5 -9 -10 -20 -10 -11 0 -20 -4 -20 -10 0
-5 -9 -10 -20 -10 -11 0 -20 -4 -20 -10 0 -5 -9 -10 -20 -10 -11 0 -20 -4 -20
-10 0 -5 -9 -10 -20 -10 -11 0 -20 -4 -20 -10 0 -5 -9 -10 -20 -10 -11 0 -20
-4 -20 -10 0 -5 -13 -10 -30 -10 -16 0 -30 -4 -30 -10 0 -5 -9 -10 -20 -10
-11 0 -20 -4 -20 -10 0 -5 -9 -10 -20 -10 -11 0 -20 -4 -20 -10 0 -5 -13 -10
-30 -10 -16 0 -30 -4 -30 -10 0 -5 -9 -10 -20 -10 -11 0 -20 -4 -20 -10 0 -5
-9 -10 -20 -10 -11 0 -20 -4 -20 -10 0 -5 -13 -10 -30 -10 -16 0 -30 -4 -30
-10 0 -5 -13 -10 -30 -10 -16 0 -30 -4 -30 -10 0 -5 -13 -10 -30 -10 -16 0
-30 -4 -30 -10 0 -5 -13 -10 -30 -10 -16 0 -30 -4 -30 -10 0 -5 -13 -10 -30
-10 -16 0 -30 -4 -30 -10 0 -5 -13 -10 -30 -10 -16 0 -30 -4 -30 -10 0 -5 -22
-10 -50 -10 -27 0 -50 -4 -50 -10 0 -5 -13 -10 -30 -10 -16 0 -30 -4 -30 -10
0 -6 -27 -10 -60 -10 -33 0 -60 -4 -60 -10 0 -6 -27 -10 -60 -10 -33 0 -60 -4
-60 -10 0 -5 -22 -10 -50 -10 -27 0 -50 -4 -50 -10 0 -6 -30 -10 -69 -10 -46
0 -71 -4 -74 -12 -4 -10 -8 -9 -17 2 -9 11 -13 12 -17 3 -7 -19 -699 -19 -706
0 -4 9 -8 8 -17 -3 -9 -11 -13 -12 -17 -2 -3 8 -28 12 -74 12 -39 0 -69 4 -69
10 0 6 -22 10 -49 10 -30 0 -51 5 -54 13 -4 9 -8 8 -17 -3 -9 -11 -13 -12 -17
-2 -3 7 -24 12 -54 12 -27 0 -49 5 -49 10 0 6 -22 10 -50 10 -27 0 -50 5 -50
10 0 6 -13 10 -30 10 -16 0 -30 5 -30 10 0 6 -22 10 -50 10 -27 0 -50 5 -50
10 0 6 -18 10 -40 10 -22 0 -40 5 -40 10 0 6 -18 10 -40 10 -22 0 -40 5 -40
10 0 6 -9 10 -20 10 -11 0 -20 5 -20 10 0 6 -13 10 -30 10 -16 0 -30 5 -30 10
0 6 -13 10 -30 10 -16 0 -30 5 -30 10 0 6 -13 10 -30 10 -16 0 -30 5 -30 10 0
6 -9 10 -20 10 -11 0 -20 5 -20 10 0 6 -13 10 -30 10 -16 0 -30 5 -30 10 0 6
-9 10 -20 10 -11 0 -20 5 -20 10 0 6 -9 10 -20 10 -11 0 -20 5 -20 10 0 6 -13
10 -30 10 -16 0 -30 5 -30 10 0 6 -9 10 -20 10 -11 0 -20 5 -20 10 0 6 -9 10
-20 10 -11 0 -20 5 -20 10 0 6 -9 10 -20 10 -11 0 -20 5 -20 10 0 6 -9 10 -20
10 -11 0 -20 5 -20 10 0 6 -9 10 -20 10 -11 0 -20 5 -20 10 0 6 -8 10 -18 10
-10 0 -24 9 -32 20 -8 11 -22 20 -32 20 -10 0 -18 5 -18 10 0 6 -8 10 -18 10
-10 0 -24 9 -32 20 -8 11 -22 20 -32 20 -10 0 -18 5 -18 10 0 6 -8 10 -18 10
-10 0 -24 9 -32 20 -8 11 -22 20 -32 20 -10 0 -18 5 -18 10 0 6 -7 10 -16 10
-9 0 -29 14 -44 30 -15 17 -35 30 -44 30 -9 0 -16 5 -16 10 0 6 -7 10 -16 10
-8 0 -37 23 -64 50 -27 28 -54 50 -60 50 -7 0 -25 14 -40 30 -15 17 -33 30
-39 30 -7 0 -43 32 -81 70 -38 39 -74 70 -80 70 -13 0 -260 247 -260 260 0 6
-31 42 -70 80 -38 38 -70 74 -70 81 0 6 -13 24 -30 39 -16 15 -30 33 -30 40 0
6 -18 29 -40 50 -22 21 -40 45 -40 52 0 7 -9 20 -20 28 -11 8 -20 21 -20 28 0
8 -13 27 -30 42 -16 15 -30 35 -30 44 0 9 -4 16 -10 16 -5 0 -10 8 -10 18 0
10 -9 24 -20 32 -11 8 -20 22 -20 32 0 10 -4 18 -10 18 -5 0 -10 8 -10 18 0
10 -9 24 -20 32 -11 8 -20 22 -20 32 0 10 -4 18 -10 18 -5 0 -10 8 -10 18 0
10 -9 24 -20 32 -11 8 -20 26 -20 40 0 14 -9 32 -20 40 -11 8 -20 22 -20 32 0
10 -4 18 -10 18 -5 0 -10 9 -10 20 0 11 -4 20 -10 20 -5 0 -10 13 -10 28 0 16
-8 34 -20 42 -12 8 -20 26 -20 42 0 15 -4 28 -10 28 -5 0 -10 9 -10 20 0 11
-4 20 -10 20 -5 0 -10 9 -10 20 0 11 -4 20 -10 20 -5 0 -10 14 -10 30 0 17 -4
30 -10 30 -5 0 -10 14 -10 30 0 17 -4 30 -10 30 -5 0 -10 9 -10 20 0 11 -4 20
-10 20 -5 0 -10 18 -10 40 0 22 -4 40 -10 40 -5 0 -10 9 -10 20 0 11 -4 20
-10 20 -5 0 -10 14 -10 30 0 17 -4 30 -10 30 -5 0 -10 18 -10 40 0 22 -4 40
-10 40 -5 0 -10 14 -10 30 0 17 -4 30 -10 30 -5 0 -10 13 -10 29 0 16 -6 32
-12 34 -10 4 -9 8 2 17 11 9 12 13 3 17 -7 2 -13 18 -13 34 0 16 -4 29 -10 29
-5 0 -10 23 -10 50 0 28 -4 50 -10 50 -6 0 -10 30 -10 70 0 40 -4 70 -10 70
-5 0 -10 22 -10 49 0 30 -5 51 -12 54 -10 4 -9 8 2 17 11 9 12 13 3 17 -9 3
-13 28 -13 74 0 39 -4 69 -10 69 -6 0 -10 70 -10 190 0 120 -4 190 -10 190 -5
0 -10 16 -10 35 0 30 -9 45 -55 90 -37 38 -63 55 -80 55 -14 0 -25 5 -25 10 0
6 -30 10 -70 10 -40 0 -70 -4 -70 -10z"/>
</g>
</svg>
